<svg width="718" height="186" viewBox="0 0 718 186" fill="none" xmlns="http://www.w3.org/2000/svg">
<path d="M29.7191 87.6524C24.0466 87.6524 18.9495 86.6689 14.4279 84.7019C9.98858 82.653 6.49463 79.8665 3.9461 76.3424C1.39758 72.7363 0.0822104 68.5975 0 63.926H11.9616C12.3727 67.9418 14.0169 71.343 16.8943 74.1295C19.8538 76.8341 24.1288 78.1864 29.7191 78.1864C35.0628 78.1864 39.2555 76.8751 42.2973 74.2525C45.4213 71.5479 46.9833 68.1058 46.9833 63.926C46.9833 60.6477 46.079 57.9841 44.2704 55.9352C42.4617 53.8863 40.2009 52.3291 37.488 51.2637C34.775 50.1983 31.1167 49.0509 26.5129 47.8215C20.8404 46.3463 16.2777 44.8711 12.8248 43.3959C9.45421 41.9207 6.53573 39.6259 4.06942 36.5116C1.68532 33.3153 0.493263 29.0535 0.493263 23.7264C0.493263 19.0549 1.68532 14.9161 4.06942 11.31C6.45352 7.7039 9.78305 4.91738 14.058 2.95043C18.4151 0.983476 23.3889 0 28.9792 0C37.0358 0 43.6127 2.00793 48.7097 6.0238C53.889 10.0397 56.8075 15.3668 57.4651 22.0053H45.1336C44.7225 18.727 42.9961 15.8586 39.9543 13.3999C36.9125 10.8592 32.8842 9.5889 27.8694 9.5889C23.1834 9.5889 19.3606 10.8182 16.401 13.2769C13.4414 15.6537 11.9616 19.0139 11.9616 23.3576C11.9616 26.4719 12.8248 29.0126 14.5513 30.9795C16.3599 32.9465 18.5385 34.4627 21.087 35.5281C23.7177 36.5116 27.3761 37.659 32.0621 38.9703C37.7346 40.5274 42.2973 42.0846 45.7501 43.6418C49.203 45.117 52.1626 47.4527 54.6289 50.649C57.0952 53.7634 58.3283 58.0251 58.3283 63.4342C58.3283 67.614 57.2185 71.5479 54.9988 75.236C52.7791 78.924 49.4907 81.9154 45.1336 84.2102C40.7764 86.505 35.6382 87.6524 29.7191 87.6524Z" fill="#70CBFF"/>
<path d="M113.81 87.6524C105.835 87.6524 98.5598 85.8083 91.9829 82.1203C85.4061 78.3503 80.1857 73.1461 76.3218 66.5076C72.5402 59.7872 70.6493 52.2472 70.6493 43.8876C70.6493 35.5281 72.5402 28.0291 76.3218 21.3906C80.1857 14.6702 85.4061 9.46596 91.9829 5.77792C98.5598 2.00793 105.835 0.122933 113.81 0.122933C121.866 0.122933 129.183 2.00793 135.76 5.77792C142.337 9.46596 147.516 14.6292 151.298 21.2677C155.079 27.9061 156.97 35.4461 156.97 43.8876C156.97 52.3292 155.079 59.8691 151.298 66.5076C147.516 73.1461 142.337 78.3503 135.76 82.1203C129.183 85.8083 121.866 87.6524 113.81 87.6524ZM113.81 77.9405C119.811 77.9405 125.196 76.5473 129.964 73.7607C134.815 70.9742 138.596 66.9993 141.309 61.8361C144.104 56.6728 145.502 50.69 145.502 43.8876C145.502 37.0033 144.104 31.0205 141.309 25.9392C138.596 20.7759 134.856 16.8011 130.088 14.0145C125.319 11.228 119.893 9.83476 113.81 9.83476C107.726 9.83476 102.3 11.228 97.5322 14.0145C92.7639 16.8011 88.9823 20.7759 86.1871 25.9392C83.4742 31.0205 82.1177 37.0033 82.1177 43.8876C82.1177 50.69 83.4742 56.6728 86.1871 61.8361C88.9823 66.9993 92.7639 70.9742 97.5322 73.7607C102.383 76.5473 107.808 77.9405 113.81 77.9405Z" fill="#70CBFF"/>
<path d="M167.592 43.8876C167.592 35.5281 169.483 28.0291 173.264 21.3906C177.046 14.6702 182.184 9.42498 188.679 5.65499C195.256 1.885 202.531 0 210.506 0C219.878 0 228.058 2.2538 235.046 6.7614C242.033 11.269 247.131 17.6616 250.337 25.9392H236.895C234.511 20.7759 231.058 16.8011 226.537 14.0145C222.097 11.228 216.754 9.83476 210.506 9.83476C204.504 9.83476 199.12 11.228 194.351 14.0145C189.583 16.8011 185.843 20.7759 183.13 25.9392C180.417 31.0205 179.06 37.0033 179.06 43.8876C179.06 50.69 180.417 56.6728 183.13 61.8361C185.843 66.9174 189.583 70.8513 194.351 73.6378C199.12 76.4243 204.504 77.8176 210.506 77.8176C216.754 77.8176 222.097 76.4653 226.537 73.7607C231.058 70.9742 234.511 66.9993 236.895 61.8361H250.337C247.131 70.0317 242.033 76.3833 235.046 80.8909C228.058 85.3166 219.878 87.5294 210.506 87.5294C202.531 87.5294 195.256 85.6854 188.679 81.9974C182.184 78.2274 177.046 73.0231 173.264 66.3847C169.483 59.7462 167.592 52.2472 167.592 43.8876Z" fill="#70CBFF"/>
<path d="M278.263 1.10641V86.7918H267.041V1.10641H278.263Z" fill="#70CBFF"/>
<path d="M348.195 67.737H310.707L303.801 86.7918H291.963L323.038 1.59815H335.986L366.939 86.7918H355.1L348.195 67.737ZM344.988 58.6398L329.451 15.3668L313.913 58.6398H344.988Z" fill="#70CBFF"/>
<path d="M391.704 77.6946H421.793V86.7918H380.482V1.10641H391.704V77.6946Z" fill="#70CBFF"/>
<path d="M179.724 124.533C179.724 131.663 177.258 137.605 172.325 142.358C167.475 147.03 160.034 149.365 150.005 149.365H133.48V185.139H122.259V99.4541H150.005C159.706 99.4541 167.063 101.79 172.078 106.461C177.175 111.133 179.724 117.157 179.724 124.533ZM150.005 140.145C156.253 140.145 160.857 138.793 163.816 136.089C166.776 133.384 168.256 129.532 168.256 124.533C168.256 113.96 162.172 108.674 150.005 108.674H133.48V140.145H150.005Z" fill="#70CBFF"/>
<path d="M204.893 176.042H234.982V185.139H193.671V99.4541H204.893V176.042Z" fill="#70CBFF"/>
<path d="M297.705 166.085H260.217L253.312 185.139H241.473L272.549 99.9458H285.497L316.449 185.139H304.611L297.705 166.085ZM294.499 156.987L278.961 113.714L263.423 156.987H294.499Z" fill="#70CBFF"/>
<path d="M382.895 99.4541V108.551H359.465V185.139H348.243V108.551H324.69V99.4541H382.895Z" fill="#70CBFF"/>
<path d="M445.295 99.4541V108.551H407.93V137.441H438.266V146.538H407.93V185.139H396.709V99.4541H445.295Z" fill="#70CBFF"/>
<path d="M497.816 186C489.841 186 482.566 184.156 475.989 180.468C469.412 176.698 464.192 171.494 460.328 164.855C456.546 158.135 454.655 150.595 454.655 142.235C454.655 133.876 456.546 126.377 460.328 119.738C464.192 113.018 469.412 107.814 475.989 104.126C482.566 100.356 489.841 98.4706 497.816 98.4706C505.872 98.4706 513.189 100.356 519.766 104.126C526.343 107.814 531.522 112.977 535.304 119.615C539.086 126.254 540.976 133.794 540.976 142.235C540.976 150.677 539.086 158.217 535.304 164.855C531.522 171.494 526.343 176.698 519.766 180.468C513.189 184.156 505.872 186 497.816 186ZM497.816 176.288C503.817 176.288 509.202 174.895 513.97 172.108C518.821 169.322 522.602 165.347 525.315 160.184C528.11 155.02 529.508 149.038 529.508 142.235C529.508 135.351 528.11 129.368 525.315 124.287C522.602 119.124 518.862 115.149 514.094 112.362C509.325 109.576 503.899 108.182 497.816 108.182C491.732 108.182 486.306 109.576 481.538 112.362C476.77 115.149 472.988 119.124 470.193 124.287C467.48 129.368 466.124 135.351 466.124 142.235C466.124 149.038 467.48 155.02 470.193 160.184C472.988 165.347 476.77 169.322 481.538 172.108C486.389 174.895 491.814 176.288 497.816 176.288Z" fill="#70CBFF"/>
<path d="M601.047 185.139L580.577 150.103H567.012V185.139H555.791V99.4541H583.537C590.031 99.4541 595.498 100.56 599.938 102.773C604.459 104.986 607.83 107.978 610.05 111.748C612.269 115.518 613.379 119.82 613.379 124.656C613.379 130.557 611.653 135.761 608.2 140.268C604.829 144.776 599.732 147.767 592.909 149.243L614.489 185.139H601.047ZM567.012 141.129H583.537C589.62 141.129 594.183 139.654 597.225 136.703C600.267 133.671 601.787 129.655 601.787 124.656C601.787 119.574 600.267 115.64 597.225 112.854C594.265 110.067 589.702 108.674 583.537 108.674H567.012V141.129Z" fill="#70CBFF"/>
<path d="M718 100.069V185.139H706.778V121.705L678.416 185.139H670.523L642.037 121.582V185.139H630.816V100.069H642.901L674.469 170.387L706.038 100.069H718Z" fill="#70CBFF"/>
</svg>
