<svg width="738" height="388" viewBox="0 0 738 388" fill="none" xmlns="http://www.w3.org/2000/svg">
<path d="M139.568 351.999L129.536 366.321L127.985 375H124.982L126.533 366.321L121.517 351.999H124.883L128.48 363.582L136.169 351.999H139.568ZM157.817 375.297C156.299 375.297 154.957 374.989 153.791 374.373C152.647 373.735 151.756 372.855 151.118 371.733C150.48 370.589 150.161 369.269 150.161 367.773C150.161 365.727 150.634 363.857 151.58 362.163C152.526 360.447 153.824 359.094 155.474 358.104C157.146 357.114 159.005 356.619 161.051 356.619C162.569 356.619 163.911 356.938 165.077 357.576C166.265 358.192 167.178 359.072 167.816 360.216C168.476 361.338 168.806 362.658 168.806 364.176C168.806 366.222 168.322 368.092 167.354 369.786C166.386 371.48 165.066 372.822 163.394 373.812C161.722 374.802 159.863 375.297 157.817 375.297ZM158.18 372.756C159.61 372.756 160.897 372.371 162.041 371.601C163.185 370.809 164.076 369.775 164.714 368.499C165.374 367.201 165.704 365.815 165.704 364.341C165.704 362.669 165.22 361.393 164.252 360.513C163.284 359.611 162.074 359.16 160.622 359.16C159.192 359.16 157.916 359.556 156.794 360.348C155.672 361.118 154.803 362.152 154.187 363.45C153.571 364.748 153.263 366.145 153.263 367.641C153.263 369.269 153.725 370.534 154.649 371.436C155.573 372.316 156.75 372.756 158.18 372.756ZM201.431 356.916L198.23 375H195.227L195.689 372.36C194.963 373.284 194.039 373.999 192.917 374.505C191.795 375.011 190.629 375.264 189.419 375.264C187.527 375.264 186.009 374.758 184.865 373.746C183.743 372.712 183.182 371.238 183.182 369.324C183.182 368.84 183.237 368.235 183.347 367.509L185.228 356.916H188.198L186.416 367.113C186.328 367.575 186.284 368.059 186.284 368.565C186.284 369.907 186.647 370.93 187.373 371.634C188.121 372.316 189.155 372.657 190.475 372.657C192.059 372.657 193.401 372.162 194.501 371.172C195.623 370.182 196.338 368.741 196.646 366.849V366.948L198.428 356.916H201.431ZM220.131 360.348C220.857 359.16 221.77 358.236 222.87 357.576C223.97 356.916 225.224 356.586 226.632 356.586L226.071 359.688H225.279C223.717 359.688 222.408 360.106 221.352 360.942C220.318 361.778 219.625 363.186 219.273 365.166L217.524 375H214.521L217.722 356.916H220.725L220.131 360.348ZM264.71 360.249C265.502 359.215 266.547 358.357 267.845 357.675C269.143 356.971 270.562 356.619 272.102 356.619C273.51 356.619 274.753 356.916 275.831 357.51C276.931 358.082 277.778 358.918 278.372 360.018C278.966 361.096 279.263 362.372 279.263 363.846C279.263 364.484 279.197 365.166 279.065 365.892C278.735 367.718 278.064 369.346 277.052 370.776C276.062 372.206 274.841 373.317 273.389 374.109C271.959 374.901 270.441 375.297 268.835 375.297C267.295 375.297 265.997 374.956 264.941 374.274C263.907 373.57 263.159 372.701 262.697 371.667L260.618 383.58H257.615L262.301 356.916H265.304L264.71 360.249ZM275.996 365.892C276.084 365.43 276.128 364.924 276.128 364.374C276.128 362.768 275.655 361.514 274.709 360.612C273.763 359.688 272.542 359.226 271.046 359.226C269.946 359.226 268.879 359.501 267.845 360.051C266.811 360.579 265.92 361.36 265.172 362.394C264.446 363.406 263.962 364.583 263.72 365.925C263.632 366.387 263.588 366.893 263.588 367.443C263.588 369.049 264.061 370.325 265.007 371.271C265.975 372.195 267.196 372.657 268.67 372.657C269.792 372.657 270.859 372.393 271.871 371.865C272.905 371.315 273.785 370.534 274.511 369.522C275.259 368.488 275.754 367.278 275.996 365.892ZM299.947 350.58L295.624 375H292.621L296.944 350.58H299.947ZM312.424 365.892C312.754 364.044 313.414 362.427 314.404 361.041C315.416 359.633 316.637 358.544 318.067 357.774C319.519 357.004 321.059 356.619 322.687 356.619C324.271 356.619 325.58 356.96 326.614 357.642C327.648 358.324 328.363 359.182 328.759 360.216L329.353 356.916H332.389L329.188 375H326.152L326.779 371.634C325.987 372.69 324.942 373.57 323.644 374.274C322.346 374.956 320.916 375.297 319.354 375.297C317.946 375.297 316.703 375 315.625 374.406C314.547 373.79 313.711 372.921 313.117 371.799C312.523 370.677 312.226 369.379 312.226 367.905C312.226 367.245 312.292 366.574 312.424 365.892ZM327.769 365.925C327.857 365.463 327.901 364.968 327.901 364.44C327.901 362.834 327.417 361.569 326.449 360.645C325.503 359.699 324.293 359.226 322.819 359.226C321.697 359.226 320.619 359.49 319.585 360.018C318.573 360.546 317.704 361.316 316.978 362.328C316.252 363.34 315.768 364.528 315.526 365.892C315.438 366.354 315.394 366.86 315.394 367.41C315.394 369.038 315.867 370.325 316.813 371.271C317.759 372.195 318.969 372.657 320.443 372.657C321.565 372.657 322.632 372.393 323.644 371.865C324.678 371.315 325.558 370.534 326.284 369.522C327.032 368.488 327.527 367.289 327.769 365.925ZM345.945 365.925C346.275 364.055 346.935 362.427 347.925 361.041C348.937 359.633 350.18 358.544 351.654 357.774C353.128 357.004 354.723 356.619 356.439 356.619C358.661 356.619 360.388 357.158 361.62 358.236C362.874 359.314 363.567 360.81 363.699 362.724H360.465C360.355 361.624 359.904 360.755 359.112 360.117C358.342 359.479 357.297 359.16 355.977 359.16C354.261 359.16 352.765 359.754 351.489 360.942C350.235 362.108 349.421 363.769 349.047 365.925C348.937 366.651 348.882 367.256 348.882 367.74C348.882 369.346 349.311 370.589 350.169 371.469C351.027 372.327 352.171 372.756 353.601 372.756C354.921 372.756 356.065 372.448 357.033 371.832C358.023 371.216 358.782 370.336 359.31 369.192H362.544C361.752 371.04 360.531 372.525 358.881 373.647C357.231 374.747 355.317 375.297 353.139 375.297C350.873 375.297 349.069 374.648 347.727 373.35C346.407 372.052 345.747 370.281 345.747 368.037C345.747 367.355 345.813 366.651 345.945 365.925ZM387.803 356.619C389.321 356.619 390.63 356.916 391.73 357.51C392.852 358.082 393.699 358.896 394.271 359.952C394.865 360.986 395.162 362.174 395.162 363.516C395.162 363.978 395.107 364.539 394.997 365.199C394.909 365.771 394.766 366.365 394.568 366.981H380.114C380.07 367.421 380.048 367.74 380.048 367.938C380.048 369.456 380.499 370.644 381.401 371.502C382.325 372.338 383.524 372.756 384.998 372.756C386.296 372.756 387.429 372.459 388.397 371.865C389.387 371.249 390.135 370.435 390.641 369.423H393.875C393.083 371.161 391.862 372.58 390.212 373.68C388.584 374.758 386.692 375.297 384.536 375.297C382.27 375.297 380.444 374.648 379.058 373.35C377.694 372.03 377.012 370.237 377.012 367.971C377.012 367.333 377.078 366.651 377.21 365.925C377.54 364.055 378.211 362.416 379.223 361.008C380.235 359.6 381.478 358.522 382.952 357.774C384.448 357.004 386.065 356.619 387.803 356.619ZM391.961 364.803C392.027 364.363 392.06 363.956 392.06 363.582C392.06 362.174 391.609 361.085 390.707 360.315C389.827 359.545 388.672 359.16 387.242 359.16C385.702 359.16 384.305 359.666 383.051 360.678C381.797 361.668 380.95 363.043 380.51 364.803H391.961ZM437.434 375.297C435.916 375.297 434.574 374.989 433.408 374.373C432.264 373.735 431.373 372.855 430.735 371.733C430.097 370.589 429.778 369.269 429.778 367.773C429.778 365.727 430.251 363.857 431.197 362.163C432.143 360.447 433.441 359.094 435.091 358.104C436.763 357.114 438.622 356.619 440.668 356.619C442.186 356.619 443.528 356.938 444.694 357.576C445.882 358.192 446.795 359.072 447.433 360.216C448.093 361.338 448.423 362.658 448.423 364.176C448.423 366.222 447.939 368.092 446.971 369.786C446.003 371.48 444.683 372.822 443.011 373.812C441.339 374.802 439.48 375.297 437.434 375.297ZM437.797 372.756C439.227 372.756 440.514 372.371 441.658 371.601C442.802 370.809 443.693 369.775 444.331 368.499C444.991 367.201 445.321 365.815 445.321 364.341C445.321 362.669 444.837 361.393 443.869 360.513C442.901 359.611 441.691 359.16 440.239 359.16C438.809 359.16 437.533 359.556 436.411 360.348C435.289 361.118 434.42 362.152 433.804 363.45C433.188 364.748 432.88 366.145 432.88 367.641C432.88 369.269 433.342 370.534 434.266 371.436C435.19 372.316 436.367 372.756 437.797 372.756ZM473.887 356.586C475.757 356.586 477.253 357.092 478.375 358.104C479.497 359.094 480.058 360.546 480.058 362.46C480.058 363.164 480.003 363.791 479.893 364.341L478.012 375H475.042L476.857 364.77C476.945 364.308 476.989 363.824 476.989 363.318C476.989 361.976 476.615 360.953 475.867 360.249C475.141 359.545 474.118 359.193 472.798 359.193C471.214 359.193 469.861 359.688 468.739 360.678C467.639 361.668 466.924 363.109 466.594 365.001V364.935L464.812 375H461.809L465.01 356.916H468.013L467.551 359.523C468.299 358.577 469.234 357.851 470.356 357.345C471.478 356.839 472.655 356.586 473.887 356.586ZM520.434 353.979C519.95 353.979 519.543 353.825 519.213 353.517C518.905 353.187 518.751 352.78 518.751 352.296C518.751 351.636 518.993 351.075 519.477 350.613C519.961 350.129 520.522 349.887 521.16 349.887C521.666 349.887 522.073 350.041 522.381 350.349C522.689 350.657 522.843 351.064 522.843 351.57C522.843 352.23 522.601 352.802 522.117 353.286C521.633 353.748 521.072 353.979 520.434 353.979ZM521.391 356.916L518.19 375H515.187L518.388 356.916H521.391ZM546.606 356.586C548.476 356.586 549.972 357.092 551.094 358.104C552.216 359.094 552.777 360.546 552.777 362.46C552.777 363.164 552.722 363.791 552.612 364.341L550.731 375H547.761L549.576 364.77C549.664 364.308 549.708 363.824 549.708 363.318C549.708 361.976 549.334 360.953 548.586 360.249C547.86 359.545 546.837 359.193 545.517 359.193C543.933 359.193 542.58 359.688 541.458 360.678C540.358 361.668 539.643 363.109 539.313 365.001V364.935L537.531 375H534.528L537.729 356.916H540.732L540.27 359.523C541.018 358.577 541.953 357.851 543.075 357.345C544.197 356.839 545.374 356.586 546.606 356.586ZM571.41 370.05C571.344 370.38 571.311 370.666 571.311 370.908C571.311 371.458 571.476 371.854 571.806 372.096C572.158 372.338 572.719 372.459 573.489 372.459H575.7L575.238 375H572.532C571.102 375 570.024 374.725 569.298 374.175C568.594 373.625 568.242 372.723 568.242 371.469C568.242 370.985 568.286 370.512 568.374 370.05L570.255 359.391H567.945L568.374 356.916H570.717L571.509 352.362H574.545L573.753 356.916H578.439L578.01 359.391H573.291L571.41 370.05ZM601.152 356.619C602.67 356.619 603.979 356.916 605.079 357.51C606.201 358.082 607.048 358.896 607.62 359.952C608.214 360.986 608.511 362.174 608.511 363.516C608.511 363.978 608.456 364.539 608.346 365.199C608.258 365.771 608.115 366.365 607.917 366.981H593.463C593.419 367.421 593.397 367.74 593.397 367.938C593.397 369.456 593.848 370.644 594.75 371.502C595.674 372.338 596.873 372.756 598.347 372.756C599.645 372.756 600.778 372.459 601.746 371.865C602.736 371.249 603.484 370.435 603.99 369.423H607.224C606.432 371.161 605.211 372.58 603.561 373.68C601.933 374.758 600.041 375.297 597.885 375.297C595.619 375.297 593.793 374.648 592.407 373.35C591.043 372.03 590.361 370.237 590.361 367.971C590.361 367.333 590.427 366.651 590.559 365.925C590.889 364.055 591.56 362.416 592.572 361.008C593.584 359.6 594.827 358.522 596.301 357.774C597.797 357.004 599.414 356.619 601.152 356.619ZM605.31 364.803C605.376 364.363 605.409 363.956 605.409 363.582C605.409 362.174 604.958 361.085 604.056 360.315C603.176 359.545 602.021 359.16 600.591 359.16C599.051 359.16 597.654 359.666 596.4 360.678C595.146 361.668 594.299 363.043 593.859 364.803H605.31ZM627.39 360.348C628.116 359.16 629.029 358.236 630.129 357.576C631.229 356.916 632.483 356.586 633.891 356.586L633.33 359.688H632.538C630.976 359.688 629.667 360.106 628.611 360.942C627.577 361.778 626.884 363.186 626.532 365.166L624.783 375H621.78L624.981 356.916H627.984L627.39 360.348ZM657.389 356.586C659.259 356.586 660.755 357.092 661.877 358.104C662.999 359.094 663.56 360.546 663.56 362.46C663.56 363.164 663.505 363.791 663.395 364.341L661.514 375H658.544L660.359 364.77C660.447 364.308 660.491 363.824 660.491 363.318C660.491 361.976 660.117 360.953 659.369 360.249C658.643 359.545 657.62 359.193 656.3 359.193C654.716 359.193 653.363 359.688 652.241 360.678C651.141 361.668 650.426 363.109 650.096 365.001V364.935L648.314 375H645.311L648.512 356.916H651.515L651.053 359.523C651.801 358.577 652.736 357.851 653.858 357.345C654.98 356.839 656.157 356.586 657.389 356.586ZM688.694 356.619C690.212 356.619 691.521 356.916 692.621 357.51C693.743 358.082 694.59 358.896 695.162 359.952C695.756 360.986 696.053 362.174 696.053 363.516C696.053 363.978 695.998 364.539 695.888 365.199C695.8 365.771 695.657 366.365 695.459 366.981H681.005C680.961 367.421 680.939 367.74 680.939 367.938C680.939 369.456 681.39 370.644 682.292 371.502C683.216 372.338 684.415 372.756 685.889 372.756C687.187 372.756 688.32 372.459 689.288 371.865C690.278 371.249 691.026 370.435 691.532 369.423H694.766C693.974 371.161 692.753 372.58 691.103 373.68C689.475 374.758 687.583 375.297 685.427 375.297C683.161 375.297 681.335 374.648 679.949 373.35C678.585 372.03 677.903 370.237 677.903 367.971C677.903 367.333 677.969 366.651 678.101 365.925C678.431 364.055 679.102 362.416 680.114 361.008C681.126 359.6 682.369 358.522 683.843 357.774C685.339 357.004 686.956 356.619 688.694 356.619ZM692.852 364.803C692.918 364.363 692.951 363.956 692.951 363.582C692.951 362.174 692.5 361.085 691.598 360.315C690.718 359.545 689.563 359.16 688.133 359.16C686.593 359.16 685.196 359.666 683.942 360.678C682.688 361.668 681.841 363.043 681.401 364.803H692.852ZM713.877 370.05C713.811 370.38 713.778 370.666 713.778 370.908C713.778 371.458 713.943 371.854 714.273 372.096C714.625 372.338 715.186 372.459 715.956 372.459H718.167L717.705 375H714.999C713.569 375 712.491 374.725 711.765 374.175C711.061 373.625 710.709 372.723 710.709 371.469C710.709 370.985 710.753 370.512 710.841 370.05L712.722 359.391H710.412L710.841 356.916H713.184L713.976 352.362H717.012L716.22 356.916H720.906L720.477 359.391H715.758L713.877 370.05Z" fill="#70CBFF"/>
<path d="M668.407 158.212C692.562 158.212 712.151 138.7 712.151 114.622C712.151 90.551 692.562 71.0334 668.407 71.0334C644.233 71.0334 624.641 90.5541 624.641 114.622C624.638 138.7 644.233 158.212 668.407 158.212Z" fill="#70CBFF"/>
<path d="M569.843 166.284C591.591 166.284 609.222 148.719 609.222 127.05C609.222 105.382 591.591 87.8168 569.843 87.8168C548.094 87.8168 530.463 105.382 530.463 127.05C530.463 148.719 548.094 166.284 569.843 166.284Z" fill="#70CBFF"/>
<path d="M480.463 173.55C500.034 173.55 515.906 157.753 515.906 138.254C515.906 118.749 500.034 102.945 480.463 102.945C460.887 102.945 445.021 118.749 445.021 138.254C445.021 157.756 460.884 173.55 480.463 173.55V173.55ZM480.463 181.613C457.988 181.613 441.512 201.339 441.512 221.715V235.433C441.512 237.373 443.099 238.967 445.052 238.967H515.865C517.825 238.967 519.412 237.373 519.412 235.433V221.715C519.412 201.339 502.935 181.613 480.463 181.613ZM569.843 175.231C544.872 175.231 526.56 197.151 526.56 219.796V235.039C526.56 237.193 528.324 238.967 530.494 238.967H609.178C610.222 238.967 611.222 238.554 611.961 237.818C612.7 237.081 613.116 236.082 613.119 235.039V219.796C613.122 197.154 594.813 175.231 569.843 175.231ZM668.401 168.153C640.656 168.153 620.314 192.507 620.314 217.673V234.605C620.314 237.001 622.273 238.967 624.685 238.967H712.105C714.529 238.967 716.488 236.998 716.488 234.605V217.673C716.488 192.51 696.146 168.153 668.401 168.153V168.153Z" fill="#70CBFF"/>
<path d="M29.7191 239.652C24.0466 239.652 18.9495 238.669 14.4279 236.702C9.98858 234.653 6.49463 231.866 3.9461 228.342C1.39758 224.736 0.0822104 220.597 0 215.926H11.9616C12.3727 219.942 14.0169 223.343 16.8943 226.13C19.8538 228.834 24.1288 230.186 29.7191 230.186C35.0628 230.186 39.2555 228.875 42.2973 226.252C45.4213 223.548 46.9833 220.106 46.9833 215.926C46.9833 212.648 46.079 209.984 44.2704 207.935C42.4617 205.886 40.2009 204.329 37.488 203.264C34.775 202.198 31.1167 201.051 26.5129 199.822C20.8404 198.346 16.2777 196.871 12.8248 195.396C9.45421 193.921 6.53573 191.626 4.06942 188.512C1.68532 185.315 0.493263 181.054 0.493263 175.726C0.493263 171.055 1.68532 166.916 4.06942 163.31C6.45352 159.704 9.78305 156.917 14.058 154.95C18.4152 152.983 23.3889 152 28.9792 152C37.0358 152 43.6127 154.008 48.7097 158.024C53.889 162.04 56.8075 167.367 57.4651 174.005H45.1336C44.7225 170.727 42.9961 167.859 39.9543 165.4C36.9125 162.859 32.8842 161.589 27.8694 161.589C23.1834 161.589 19.3606 162.818 16.401 165.277C13.4414 167.654 11.9616 171.014 11.9616 175.358C11.9616 178.472 12.8248 181.013 14.5513 182.98C16.3599 184.946 18.5385 186.463 21.087 187.528C23.7177 188.512 27.3761 189.659 32.0621 190.97C37.7346 192.527 42.2973 194.085 45.7501 195.642C49.203 197.117 52.1626 199.453 54.6289 202.649C57.0952 205.763 58.3283 210.025 58.3283 215.434C58.3283 219.614 57.2185 223.548 54.9988 227.236C52.7791 230.924 49.4907 233.915 45.1336 236.21C40.7764 238.505 35.6383 239.652 29.7191 239.652Z" fill="#70CBFF"/>
<path d="M113.81 239.652C105.835 239.652 98.5598 237.808 91.9829 234.12C85.4061 230.35 80.1857 225.146 76.3218 218.508C72.5402 211.787 70.6493 204.247 70.6493 195.888C70.6493 187.528 72.5402 180.029 76.3218 173.391C80.1857 166.67 85.4061 161.466 91.9829 157.778C98.5598 154.008 105.835 152.123 113.81 152.123C121.866 152.123 129.183 154.008 135.76 157.778C142.337 161.466 147.516 166.629 151.298 173.268C155.08 179.906 156.97 187.446 156.97 195.888C156.97 204.329 155.08 211.869 151.298 218.508C147.516 225.146 142.337 230.35 135.76 234.12C129.183 237.808 121.866 239.652 113.81 239.652ZM113.81 229.941C119.811 229.941 125.196 228.547 129.964 225.761C134.815 222.974 138.596 218.999 141.309 213.836C144.104 208.673 145.502 202.69 145.502 195.888C145.502 189.003 144.104 183.02 141.309 177.939C138.596 172.776 134.856 168.801 130.088 166.015C125.319 163.228 119.893 161.835 113.81 161.835C107.726 161.835 102.3 163.228 97.5322 166.015C92.7639 168.801 88.9823 172.776 86.1871 177.939C83.4742 183.02 82.1177 189.003 82.1177 195.888C82.1177 202.69 83.4742 208.673 86.1871 213.836C88.9823 218.999 92.7639 222.974 97.5322 225.761C102.383 228.547 107.808 229.941 113.81 229.941Z" fill="#70CBFF"/>
<path d="M167.592 195.888C167.592 187.528 169.483 180.029 173.264 173.391C177.046 166.67 182.184 161.425 188.679 157.655C195.256 153.885 202.531 152 210.506 152C219.878 152 228.058 154.254 235.046 158.761C242.033 163.269 247.131 169.662 250.337 177.939H236.895C234.511 172.776 231.058 168.801 226.537 166.015C222.097 163.228 216.754 161.835 210.506 161.835C204.504 161.835 199.12 163.228 194.351 166.015C189.583 168.801 185.843 172.776 183.13 177.939C180.417 183.02 179.06 189.003 179.06 195.888C179.06 202.69 180.417 208.673 183.13 213.836C185.843 218.917 189.583 222.851 194.351 225.638C199.12 228.424 204.504 229.818 210.506 229.818C216.754 229.818 222.097 228.465 226.537 225.761C231.058 222.974 234.511 218.999 236.895 213.836H250.337C247.131 222.032 242.033 228.383 235.046 232.891C228.058 237.317 219.878 239.529 210.506 239.529C202.531 239.529 195.256 237.685 188.679 233.997C182.184 230.227 177.046 225.023 173.264 218.385C169.483 211.746 167.592 204.247 167.592 195.888Z" fill="#70CBFF"/>
<path d="M278.263 153.106V238.792H267.041V153.106H278.263Z" fill="#70CBFF"/>
<path d="M348.195 219.737H310.707L303.801 238.792H291.963L323.038 153.598H335.986L366.939 238.792H355.1L348.195 219.737ZM344.988 210.64L329.451 167.367L313.913 210.64H344.988Z" fill="#70CBFF"/>
<path d="M391.704 229.695H421.793V238.792H380.482V153.106H391.704V229.695Z" fill="#70CBFF"/>
<path d="M179.724 276.533C179.724 283.663 177.258 289.605 172.325 294.358C167.475 299.03 160.034 301.366 150.005 301.366H133.48V337.139H122.259V251.454H150.005C159.706 251.454 167.063 253.79 172.078 258.461C177.175 263.133 179.724 269.157 179.724 276.533ZM150.005 292.145C156.253 292.145 160.857 290.793 163.816 288.089C166.776 285.384 168.256 281.532 168.256 276.533C168.256 265.96 162.172 260.674 150.005 260.674H133.48V292.145H150.005Z" fill="#70CBFF"/>
<path d="M204.893 328.042H234.982V337.139H193.671V251.454H204.893V328.042Z" fill="#70CBFF"/>
<path d="M297.705 318.085H260.217L253.312 337.139H241.473L272.549 251.946H285.497L316.449 337.139H304.611L297.705 318.085ZM294.499 308.987L278.961 265.714L263.423 308.987H294.499Z" fill="#70CBFF"/>
<path d="M382.895 251.454V260.551H359.465V337.139H348.244V260.551H324.69V251.454H382.895Z" fill="#70CBFF"/>
<path d="M445.295 251.454V260.551H407.93V289.441H438.266V298.538H407.93V337.139H396.709V251.454H445.295Z" fill="#70CBFF"/>
<path d="M497.816 338C489.841 338 482.566 336.156 475.989 332.468C469.412 328.698 464.192 323.494 460.328 316.855C456.546 310.135 454.655 302.595 454.655 294.235C454.655 285.876 456.546 278.377 460.328 271.738C464.192 265.018 469.412 259.814 475.989 256.126C482.566 252.356 489.841 250.471 497.816 250.471C505.872 250.471 513.189 252.356 519.766 256.126C526.343 259.814 531.522 264.977 535.304 271.615C539.086 278.254 540.976 285.794 540.976 294.235C540.976 302.677 539.086 310.217 535.304 316.855C531.522 323.494 526.343 328.698 519.766 332.468C513.189 336.156 505.872 338 497.816 338ZM497.816 328.288C503.817 328.288 509.202 326.895 513.97 324.108C518.821 321.322 522.602 317.347 525.315 312.184C528.11 307.02 529.508 301.038 529.508 294.235C529.508 287.351 528.11 281.368 525.315 276.287C522.602 271.124 518.862 267.149 514.094 264.362C509.325 261.576 503.899 260.182 497.816 260.182C491.732 260.182 486.306 261.576 481.538 264.362C476.77 267.149 472.988 271.124 470.193 276.287C467.48 281.368 466.124 287.351 466.124 294.235C466.124 301.038 467.48 307.02 470.193 312.184C472.988 317.347 476.77 321.322 481.538 324.108C486.389 326.895 491.814 328.288 497.816 328.288Z" fill="#70CBFF"/>
<path d="M601.048 337.139L580.577 302.103H567.012V337.139H555.791V251.454H583.537C590.031 251.454 595.498 252.56 599.938 254.773C604.459 256.986 607.83 259.978 610.05 263.748C612.269 267.518 613.379 271.82 613.379 276.656C613.379 282.557 611.653 287.761 608.2 292.268C604.829 296.776 599.732 299.767 592.909 301.243L614.489 337.139H601.048ZM567.012 293.129H583.537C589.62 293.129 594.183 291.654 597.225 288.703C600.267 285.671 601.787 281.655 601.787 276.656C601.787 271.574 600.267 267.64 597.225 264.854C594.265 262.067 589.702 260.674 583.537 260.674H567.012V293.129Z" fill="#70CBFF"/>
<path d="M718 252.069V337.139H706.778V273.705L678.416 337.139H670.523L642.037 273.582V337.139H630.816V252.069H642.901L674.47 322.387L706.038 252.069H718Z" fill="#70CBFF"/>
</svg>
