<svg width="699" height="625" viewBox="0 0 699 625" fill="none" xmlns="http://www.w3.org/2000/svg">
<g opacity="0.2">
<path d="M698.234 316.259C698.234 342.578 692.194 366.738 680.113 388.742C668.033 410.314 649.481 427.788 624.457 441.162C599.433 454.537 568.369 461.225 531.265 461.225H462.665V624.31H352V170H531.265C567.506 170 598.139 176.256 623.163 188.768C648.186 201.28 666.954 218.537 679.466 240.541C691.978 262.545 698.234 287.784 698.234 316.259ZM522.852 373.21C543.993 373.21 559.74 368.248 570.095 358.325C580.45 348.402 585.627 334.38 585.627 316.259C585.627 298.139 580.45 284.117 570.095 274.194C559.74 264.27 543.993 259.309 522.852 259.309H462.665V373.21H522.852Z" fill="#70CBFF"/>
<path d="M177.323 465.312C144.102 465.312 114.333 459.919 88.0145 449.133C61.6965 438.347 40.5557 422.384 24.5923 401.243C9.06032 380.102 0.862888 354.647 0 324.877H117.784C119.51 341.704 125.334 354.647 135.258 363.707C145.181 372.336 158.124 376.65 174.088 376.65C190.482 376.65 203.426 372.983 212.918 365.649C222.409 357.883 227.155 347.312 227.155 333.938C227.155 322.72 223.272 313.444 215.506 306.109C208.172 298.775 198.896 292.735 187.678 287.989C176.892 283.243 161.36 277.85 141.082 271.81C111.744 262.749 87.7988 253.689 69.2467 244.629C50.6947 235.568 34.7312 222.194 21.3565 204.504C7.98171 186.815 1.29433 163.733 1.29433 135.258C1.29433 92.9762 16.6106 59.9707 47.2431 36.2413C77.8756 12.0804 117.784 0 166.969 0C217.016 0 257.356 12.0804 287.989 36.2413C318.621 59.9707 335.016 93.1919 337.173 135.905H217.448C216.585 121.236 211.192 109.802 201.269 101.605C191.345 92.9761 178.618 88.6617 163.086 88.6617C149.711 88.6617 138.925 92.329 130.727 99.6635C122.53 106.567 118.431 116.706 118.431 130.08C118.431 144.749 125.334 156.183 139.141 164.38C152.947 172.578 174.519 181.422 203.857 190.914C233.195 200.837 256.925 210.329 275.045 219.389C293.598 228.45 309.561 241.609 322.936 258.866C336.311 276.124 342.998 298.343 342.998 325.524C342.998 351.411 336.311 374.925 322.936 396.065C309.992 417.206 291.009 434.033 265.985 446.544C240.961 459.056 211.408 465.312 177.323 465.312Z" fill="#70CBFF"/>
</g>
</svg>
